<svg xmlns="http://www.w3.org/2000/svg" width="128" height="128" viewBox="0 0 128 128">
  <path id="Icon_awesome-user-circle" data-name="Icon awesome-user-circle" d="M64,.563a64,64,0,1,0,64,64A63.989,63.989,0,0,0,64,.563Zm0,24.774a22.71,22.71,0,1,1-22.71,22.71A22.71,22.71,0,0,1,64,25.337Zm0,88.774a49.452,49.452,0,0,1-37.806-17.6A28.773,28.773,0,0,1,51.613,81.079a6.315,6.315,0,0,1,1.832.284A34.168,34.168,0,0,0,64,83.143a34.038,34.038,0,0,0,10.555-1.781,6.314,6.314,0,0,1,1.832-.284,28.773,28.773,0,0,1,25.419,15.432A49.452,49.452,0,0,1,64,114.111Z" transform="translate(0 -0.563)" fill="#dcdcdc"/>
</svg>
